<svg xmlns="http://www.w3.org/2000/svg" viewBox="0 0 100 100" fill="none">
  <defs>
    <linearGradient id="coral" gradientUnits="userSpaceOnUse" x1="25" y1="5" x2="80" y2="100">
      <stop offset="0" stop-color="#f68d6d"/>
      <stop offset="1" stop-color="#ee6644"/>
    </linearGradient>
    <linearGradient id="env" gradientUnits="userSpaceOnUse" x1="50" y1="48" x2="50" y2="91">
      <stop offset="0" stop-color="#fcdfb2"/>
      <stop offset="1" stop-color="#f5bd80"/>
    </linearGradient>
  </defs>
  <rect width="100" height="100" rx="22" fill="#fbf3e7"/>
  <g transform="translate(7 7) scale(0.86)">
    <rect x="72" y="12" width="10" height="32" rx="3" fill="url(#coral)"/>
    <path d="M14.5 44V82a9.5 9.5 0 0 0 9.5 9.5h52a9.5 9.5 0 0 0 9.5-9.5V44" fill="#faf2ed" stroke="url(#coral)" stroke-width="9.5"/>
    <rect x="15" y="48" width="70" height="43" rx="7" fill="url(#env)"/>
    <path d="M15 48 50 86 15 86Z" fill="#ffffff" opacity="0.22"/>
    <path d="M85 48 50 86 85 86Z" fill="#ffffff" opacity="0.12"/>
    <path d="M55.66 21.66 78.34 44.34Q84 50 78.34 55.66L55.66 78.34Q50 84 44.34 78.34L21.66 55.66Q16 50 21.66 44.34L44.34 21.66Q50 16 55.66 21.66Z" fill="#faf2ed" stroke="url(#coral)" stroke-width="8.5"/>
    <path d="M8 51 50 9l42 42" stroke="url(#coral)" stroke-width="11" stroke-linecap="round" stroke-linejoin="round"/>
  </g>
</svg>
